# xmcd
#
# Track frame offsets:
#	150
#	35388
#	56354
#	86036
#	106680
#	127086
#	147415
#	168436
#	183491
#	205453
#	223166
#	248914
#	270427
#	289892
#	313048
#
# Disc length: 4599 seconds
#
# Revision: 634391962
# Processed by: cddbd v1.5.2PL0 Copyright (c) Steve Scherf et al.
# Submitted via: EZCDAudioConverter 8.2.3.1
#
DISCID=e511f50f
DTITLE=Various Artist - Quiet Storm | Gold [CD1]
DYEAR=2007
DGENRE=Soul, Contemporary R&B
TTITLE0=Smokey Robinson - Quiet Storm
TTITLE1=The Temptations - A Song For You
TTITLE2=Commodores - Sweet Love
TTITLE3=L.T.D. - Love Ballad
TTITLE4=Norman Connors - You Are My Starship
TTITLE5=The Dramatics - Be My Girl
TTITLE6=Marvin Gaye - After The Dance
TTITLE7=The Originals - Baby I'm For Real
TTITLE8=Enchantment - Sunshine
TTITLE9=Rose Royce - I Wanna Get Next To You
TTITLE10=The Gap Band - Yearning For Your Love
TTITLE11=Bobby Caldwell - What You Won't Do For Love
TTITLE12=Natalie Cole - I've Got Your Love On My Mind
TTITLE13=Isaac Hayes - Never Can Say Goodbye
TTITLE14=Lenny Williams - 'Cause I Love You
EXTD=
EXTT0=
EXTT1=
EXTT2=
EXTT3=
EXTT4=
EXTT5=
EXTT6=
EXTT7=
EXTT8=
EXTT9=
EXTT10=
EXTT11=
EXTT12=
EXTT13=
EXTT14=
PLAYORDER=
